
<svg class="ldi-t6s8s0" width="200px"  height="200px"  xmlns="http://www.w3.org/2000/svg" xmlns:xlink="http://www.w3.org/1999/xlink" viewBox="0 0 100 100" preserveAspectRatio="xMidYMid" style="background: none;"><!--?xml version="1.0" encoding="utf-8"?--><!--Generator: Adobe Illustrator 21.0.0, SVG Export Plug-In . SVG Version: 6.00 Build 0)--><svg version="1.1" id="圖層_1" xmlns="http://www.w3.org/2000/svg" xmlns:xlink="http://www.w3.org/1999/xlink" x="0px" y="0px" viewBox="0 0 100 100" style="transform-origin: 50px 50px 0px;" xml:space="preserve"><g style="transform-origin: 50px 50px 0px;"><g style="transform-origin: 50px 50px 0px; transform: scale(0.6);"><g style="transform-origin: 50px 50px 0px;"><g><style type="text/css" style="transform-origin: 50px 50px 0px; animation-duration: 1s; animation-delay: -1s; animation-direction: normal;" class="ld ld-fade">.st0{fill-rule:evenodd;clip-rule:evenodd;fill:#FFDC6C;} .st1{fill:none;stroke:#F8B26A;stroke-width:2.6883;stroke-linecap:round;stroke-miterlimit:10;} .st2{fill:#353035;} .st3{fill:#FFDC6C;} .st4{fill-rule:evenodd;clip-rule:evenodd;fill:#E15B64;} .st5{fill:#F8B26A;} .st6{fill-rule:evenodd;clip-rule:evenodd;fill:#A0C8D7;} .st7{fill-rule:evenodd;clip-rule:evenodd;fill:#B5B5B5;} .st8{fill:#A0C8D7;} .st9{fill-rule:evenodd;clip-rule:evenodd;fill:#F8B26A;} .st10{fill-rule:evenodd;clip-rule:evenodd;fill:#E0E0E0;stroke:#000000;stroke-width:3.8366;stroke-linecap:round;stroke-miterlimit:10;} .st11{fill-rule:evenodd;clip-rule:evenodd;fill:#FFDC6C;stroke:#F47E60;stroke-width:4;stroke-miterlimit:10;} .st12{fill-rule:evenodd;clip-rule:evenodd;fill:#E0E0E0;stroke:#000000;stroke-width:5;stroke-linecap:round;stroke-miterlimit:10;} .st13{fill:#B5B5B5;} .st14{fill-rule:evenodd;clip-rule:evenodd;fill:#E0E0E0;} .st15{fill-rule:evenodd;clip-rule:evenodd;fill:#E0E0E0;stroke:#000000;stroke-width:6.8207;stroke-linecap:round;stroke-miterlimit:10;} .st16{fill:#E0E0E0;} .st17{fill:#E0E0E0;stroke:#FFFFFF;stroke-width:3;stroke-miterlimit:10;} .st18{fill:#77A4BD;} .st19{fill-rule:evenodd;clip-rule:evenodd;fill:#E0E0E0;stroke:#000000;stroke-width:4;stroke-linecap:round;stroke-miterlimit:10;} .st20{fill:#F8B26A;stroke:#000000;stroke-width:3;stroke-miterlimit:10;} .st21{fill:none;stroke:#F8B26A;stroke-width:4.5884;stroke-linecap:round;stroke-miterlimit:10;} .st22{fill:#333333;} .st23{fill:#666666;} .st24{fill:#F47E60;} .st25{fill:#E15B64;} .st26{fill:#C33737;} .st27{fill:none;stroke:#77A4BD;stroke-width:4;stroke-linecap:round;stroke-miterlimit:10;} .st28{fill:none;stroke:#A0C8D7;stroke-width:4;stroke-linecap:round;stroke-miterlimit:10;} .st29{fill:none;stroke:#77A4BD;stroke-width:3.5;stroke-linecap:round;stroke-miterlimit:10;} .st30{fill:none;stroke:#A0C8D7;stroke-width:3.5;stroke-linecap:round;stroke-miterlimit:10;} .st31{fill-rule:evenodd;clip-rule:evenodd;fill:#F5E6C8;} .st32{fill:#E6E6E6;} .st33{fill:none;} .st34{fill:#849B87;} .st35{fill:none;stroke:#C33737;stroke-width:3;stroke-linecap:round;stroke-miterlimit:10;} .st36{fill:#F5E6C8;} .st37{fill:none;stroke:#F8B26A;stroke-width:1.8792;stroke-linecap:round;stroke-miterlimit:10;} .st38{fill:#998675;} .st39{fill:#736357;} .st40{fill-rule:evenodd;clip-rule:evenodd;fill:#80AAF3;} .st41{fill:none;stroke:#A0C8D7;stroke-width:3;stroke-linecap:round;stroke-miterlimit:10;} .st42{fill:none;stroke:#77A4BD;stroke-width:3;stroke-linecap:round;stroke-miterlimit:10;} .st43{fill:none;stroke:#F5E169;stroke-width:4.588;stroke-linecap:round;stroke-miterlimit:10;} .st44{fill:none;stroke:#F8B26A;stroke-width:4.588;stroke-linecap:round;stroke-miterlimit:10;} .st45{fill:none;stroke:#F47E60;stroke-width:4.588;stroke-linecap:round;stroke-miterlimit:10;} .st46{fill:none;stroke:#E15B64;stroke-width:4.588;stroke-linecap:round;stroke-miterlimit:10;} .st47{fill:none;stroke:#E15B64;stroke-width:8;stroke-miterlimit:10;} .st48{fill:none;stroke:#F8B26A;stroke-width:8;stroke-miterlimit:10;} .st49{fill:none;stroke:#ABBD81;stroke-width:8;stroke-miterlimit:10;} .st50{fill:none;stroke:#E15B64;stroke-width:4;stroke-miterlimit:10;} .st51{fill:none;stroke:#F8B26A;stroke-width:4;stroke-miterlimit:10;} .st52{fill:none;stroke:#F5E6C8;stroke-width:4;stroke-miterlimit:10;} .st53{fill:none;stroke:#ABBD81;stroke-width:4;stroke-miterlimit:10;} .st54{fill:none;stroke:#A0C8D7;stroke-width:4;stroke-miterlimit:10;} .st55{fill:none;stroke:#B295E3;stroke-width:4;stroke-miterlimit:10;}</style><g style="transform-origin: 50px 50px 0px; animation-duration: 1s; animation-delay: -0.928571s; animation-direction: normal;" class="ld ld-fade"><path class="st29" d="M28,61.3c3.2-8.8,10.2-16.1,18.9-19.8c4.4-1.9,9.3-2.9,13.1-5.7c3.2-2.4,5.5-6,6.3-9.9 c0.6-3.2,0.2-6.6-1.3-9.4s-4.4-5-7.6-5.5c-5.2-0.9-10.7,3.4-11.2,8.6c-0.3,3,1,6.2,3.6,7.7c2.6,1.6,6.3,1,8-1.5s0.4-6.5-2.5-7.3" stroke="rgb(119, 164, 189)" style="stroke: rgb(119, 164, 189);"></path></g><g style="transform-origin: 50px 50px 0px; animation-duration: 1s; animation-delay: -0.857143s; animation-direction: normal;" class="ld ld-fade"><path class="st30" d="M14.5,89.3c5.2-0.8,9.5-4.5,12.5-8.8s4.9-9.2,7.2-13.9s5.1-9.4,9.4-12.4c6.2-4.4,15.1-4.6,21.4-0.4 c1.4,0.9,2.7,2,3.6,3.4c1.8,2.7,1.9,6.5,0.1,9.1c-1.8,2.7-5.5,4-8.5,2.8s-4.9-4.8-3.9-7.9c0.6-1.9,2.4-3.5,4.4-3.3 c2,0.1,3.6,2.5,2.6,4.2" stroke="rgb(160, 200, 215)" style="stroke: rgb(160, 200, 215);"></path></g><g style="transform-origin: 50px 50px 0px; animation-duration: 1s; animation-delay: -0.785714s; animation-direction: normal;" class="ld ld-fade"><path class="st29" d="M60.1,44.6c3.3-1,5.9-3.4,8.2-5.9c2.3-2.5,4.4-5.3,7.1-7.3s6.2-3.5,9.5-2.7c1.7,0.4,3.2,1.3,4.4,2.6 c2,2.3,2.5,5.9,0.7,8.3c-0.9,1.3-2.3,2.1-3.8,2.3c-1.8,0.3-3.7-0.4-4.7-1.9c-1-1.4-0.9-3.6,0.4-4.9c0.4-0.4,1-0.6,1.6-0.7" stroke="rgb(119, 164, 189)" style="stroke: rgb(119, 164, 189);"></path></g><g style="transform-origin: 50px 50px 0px; animation-duration: 1s; animation-delay: -0.714286s; animation-direction: normal;" class="ld ld-fade"><path class="st30" d="M27.7,46.5c-2.3,3.3-4.7,6.7-5.4,10.6c-0.9,4.8,0.7,9.9-0.9,14.5c-1.1,3.2-3.8,5.9-7.1,6.4 c-1.8,0.3-3.7-0.1-5.3-1.1" stroke="rgb(160, 200, 215)" style="stroke: rgb(160, 200, 215);"></path></g><metadata xmlns:d="https://loading.io/stock/" style="transform-origin: 50px 50px 0px; animation-duration: 1s; animation-delay: -0.642857s; animation-direction: normal;" class="ld ld-fade">
<d:name style="transform-origin: 50px 50px 0px; animation-duration: 1s; animation-delay: -0.571429s; animation-direction: normal;" class="ld ld-fade">breeze</d:name>
<d:tags style="transform-origin: 50px 50px 0px; animation-duration: 1s; animation-delay: -0.5s; animation-direction: normal;" class="ld ld-fade">wind,chill,blow,air,flow,current,breeze,weather</d:tags>
<d:license style="transform-origin: 50px 50px 0px; animation-duration: 1s; animation-delay: -0.428571s; animation-direction: normal;" class="ld ld-fade">rf</d:license>
<d:slug style="transform-origin: 50px 50px 0px; animation-duration: 1s; animation-delay: -0.357143s; animation-direction: normal;" class="ld ld-fade">t6s8s0</d:slug>
</metadata></g></g></g></g><style type="text/css" style="transform-origin: 50px 50px 0px; animation-duration: 1s; animation-delay: -0.285714s; animation-direction: normal;" class="ld ld-fade">@keyframes ld-fade {
  0% {
    opacity: 1;
  }
  100% {
    opacity: 0;
  }
}
@-webkit-keyframes ld-fade {
  0% {
    opacity: 1;
  }
  100% {
    opacity: 0;
  }
}
.ld.ld-fade {
  -webkit-animation: ld-fade 1s infinite linear;
  animation: ld-fade 1s infinite linear;
}
</style></svg></svg>